<svg width="230" height="117" viewBox="0 0 230 117" fill="none" xmlns="http://www.w3.org/2000/svg">
<path d="M139.298 46.5141C141.035 44.4731 142.428 42.216 143.53 39.7761C143.608 39.6044 143.829 39.308 143.444 39.2416C142.91 39.1474 142.345 38.8455 141.949 39.621C141.389 40.7205 140.628 41.7064 139.783 42.6092C138.772 43.6921 137.712 44.7251 136.626 45.8301C137.327 46.1236 137.986 46.3812 138.626 46.6831C138.93 46.8243 139.113 46.7302 139.298 46.5141Z" fill="#BC0F06"/>
<path d="M144.134 35.9487C144.533 36.0235 144.857 36.0512 144.937 35.5582C145.092 34.636 145.234 33.711 145.38 32.786C145.425 32.4232 145.378 32.1518 144.94 32.0632C144.453 31.9635 144.419 32.2986 144.35 32.6198C144.159 33.5033 143.985 34.3895 143.766 35.2674C143.672 35.6441 143.68 35.8629 144.134 35.9487Z" fill="#BC0F06"/>
<path d="M90.3265 74.8899C89.0027 74.7708 87.6651 74.84 86.3358 74.7957C85.8013 74.7791 85.6628 75.0505 85.6656 75.5047C85.6711 76.2857 85.6656 77.0639 85.6656 77.8449C85.6656 78.6258 85.6656 79.4041 85.6656 80.185C85.6656 80.5506 85.757 80.822 86.2056 80.8165C87.7953 80.7971 89.396 80.9383 90.9635 80.5811C92.4922 80.2349 93.2012 79.2573 93.1292 77.687C93.0572 76.0696 92.1018 75.0477 90.3265 74.8899Z" fill="#BC0F06"/>
<path d="M141.952 74.8871C140.664 74.7597 139.357 74.8262 138.061 74.7846C137.534 74.768 137.393 75.0228 137.407 75.4992C137.429 76.3106 137.413 77.122 137.413 77.9335C137.41 77.9335 137.41 77.9335 137.407 77.9335C137.407 78.8114 137.418 79.6866 137.402 80.5645C137.396 80.955 137.515 81.1904 137.944 81.1793C139.337 81.1377 140.739 81.3178 142.123 81.0463C143.86 80.7085 144.588 79.7419 144.549 77.8504C144.513 76.1278 143.638 75.0533 141.952 74.8871Z" fill="#BC0F06"/>
<path d="M101.116 62.1172C100.933 62.1172 100.751 62.1172 100.568 62.1144V62.1283H128.581V62.1227C128.55 62.1227 128.517 62.1227 128.487 62.1227C127.767 62.1338 127.492 61.9067 127.539 61.17C127.595 60.3254 127.526 59.4751 127.562 58.6305C127.614 57.3787 127.346 56.2349 126.515 55.2684C126.216 54.9194 126.202 54.7228 126.725 54.6535C127.495 54.5538 128.046 54.1772 127.947 53.3187C127.844 52.4463 127.171 52.1943 126.434 52.3244C125.008 52.5792 124.363 51.8869 124.008 50.6268C123.815 49.9427 123.471 49.3002 123.186 48.6438C122.626 47.3533 121.688 46.6415 120.234 46.6582C118.409 46.6775 116.584 46.6637 114.759 46.6637C112.933 46.6637 111.108 46.6775 109.283 46.6582C107.68 46.6415 106.65 47.4668 106.015 48.8543C105.611 49.7433 105.245 50.6517 104.908 51.5684C104.711 52.1029 104.404 52.3604 103.819 52.3078C103.398 52.2718 102.972 52.3078 102.548 52.3106C101.856 52.3161 101.435 52.6512 101.365 53.3491C101.299 54.0415 101.645 54.5372 102.315 54.6009C103.157 54.6812 103.143 54.9083 102.673 55.4954C102.066 56.257 101.82 57.1543 101.85 58.1403C101.883 59.2148 101.836 60.2921 101.861 61.3667C101.875 61.9178 101.656 62.12 101.116 62.1172ZM124.889 57.0353C125.609 57.0242 126 57.5448 126.025 58.251C126.05 58.9822 125.692 59.5278 124.956 59.6718C124.421 59.777 123.859 59.7438 123.308 59.7715C123.308 59.7549 123.308 59.7382 123.308 59.7188C122.82 59.7188 122.33 59.7659 121.848 59.7078C121.17 59.6275 120.691 59.2674 120.666 58.5197C120.644 57.8218 121.042 57.4036 121.696 57.3177C122.757 57.1765 123.823 57.0519 124.889 57.0353ZM106.143 52.8756C106.614 51.8038 106.979 50.6877 107.419 49.6021C107.868 48.4915 108.68 47.9459 109.918 47.9598C113.041 47.9903 116.168 47.9792 119.292 47.9653C120.627 47.9598 121.521 48.5524 121.995 49.7932C122.402 50.8566 122.765 51.9395 123.214 52.9836C123.521 53.6981 123.241 53.8199 122.604 53.8172C119.935 53.8033 117.265 53.8116 114.598 53.8116V53.8144C111.995 53.8144 109.389 53.795 106.785 53.8255C105.988 53.8338 105.813 53.6233 106.143 52.8756ZM103.351 58.1569C103.465 57.3344 103.974 56.9937 104.789 57.074C105.725 57.1682 106.661 57.243 107.594 57.3537C108.264 57.4341 108.663 57.8356 108.674 58.5141C108.685 59.2037 108.256 59.6108 107.611 59.6939C107.068 59.7659 106.511 59.7078 105.96 59.7078C105.473 59.705 104.98 59.7604 104.503 59.6939C103.725 59.5859 103.246 58.9268 103.351 58.1569Z" fill="#BC0F06"/>
<path d="M68.2016 62.1283C68.1877 71.0514 68.1351 79.9773 68.2348 88.8977C68.3068 95.417 71.6135 100.039 77.3573 102.928C80.1849 104.348 83.2701 104.62 86.3996 104.617C105.331 104.6 124.263 104.612 143.195 104.609C144.5 104.609 145.799 104.501 147.092 104.324C155.237 103.191 160.975 96.5968 160.975 88.3715C160.975 79.6228 160.981 70.8769 160.983 62.1283H68.2016ZM107.481 64.1666C112.23 64.1887 116.977 64.1943 121.727 64.1638C122.452 64.1583 122.693 64.3798 122.696 65.0999C122.699 65.8144 122.388 65.9778 121.752 65.9723C119.378 65.9501 117.002 65.9639 114.629 65.9639C114.629 65.9612 114.629 65.9612 114.629 65.9584C112.255 65.9584 109.879 65.939 107.505 65.9695C106.794 65.9806 106.542 65.7701 106.558 65.0279C106.578 64.3272 106.83 64.1638 107.481 64.1666ZM97.3084 92.9522C96.3308 92.9549 95.3449 92.8746 94.3783 92.9716C93.3675 93.0713 92.8524 92.6503 92.4231 91.7807C91.4427 89.795 90.3322 87.8758 89.3546 85.8901C88.9696 85.1091 88.5127 84.8072 87.6292 84.8488C85.3943 84.9513 85.6767 84.5441 85.6629 86.84C85.6518 88.5681 85.6297 90.2935 85.6712 92.0216C85.6906 92.7583 85.4247 93.0076 84.7102 92.9716C83.8323 92.9273 82.9461 92.9079 82.0737 92.9771C81.1515 93.0463 80.8247 92.7472 80.8413 91.7807C80.8939 88.4241 80.8607 85.0676 80.8607 81.711C80.8634 81.711 80.8634 81.711 80.8662 81.711C80.8662 78.3544 80.8911 74.9979 80.8496 71.6413C80.8385 70.8022 81.0739 70.4781 81.9491 70.5086C85.4275 70.6305 88.9225 70.2594 92.3843 70.8603C95.0541 71.3256 96.9816 72.7325 97.6601 75.4354C98.3525 78.1938 98.1586 80.8165 95.9098 82.9268C95.3781 83.4281 94.7744 83.8241 94.0903 84.0373C93.434 84.2423 93.4866 84.5109 93.7857 85.0094C95.1649 87.2942 96.5191 89.5984 97.8761 91.8998C98.4577 92.894 98.4273 92.9494 97.3084 92.9522ZM129.841 71.5139C128.346 76.8423 126.878 82.1763 125.41 87.513C124.986 89.0528 124.56 90.5898 124.186 92.1407C124.036 92.7639 123.734 92.9993 123.103 92.9771C122.028 92.9411 120.951 92.9273 119.879 92.9799C119.159 93.0159 118.86 92.7389 118.669 92.0493C117.503 87.7761 116.29 83.5167 115.091 79.2545C115.005 78.9471 114.903 78.6452 114.775 78.2353C114.437 78.5677 114.399 78.9194 114.304 79.2462C113.086 83.4696 111.845 87.6875 110.663 91.9219C110.438 92.7279 110.081 93.0491 109.239 92.9826C108.334 92.9106 107.414 92.9217 106.503 92.9799C105.73 93.0297 105.428 92.7029 105.235 91.9856C103.77 86.5492 102.263 81.1211 100.77 75.6902C100.374 74.2446 99.9948 72.7962 99.5655 71.3588C99.3827 70.7468 99.5489 70.5141 100.178 70.5224C101.285 70.5363 102.396 70.5668 103.501 70.5086C104.254 70.4698 104.512 70.8105 104.678 71.4834C105.788 75.9727 106.932 80.4509 108.068 84.9346C108.115 85.1174 108.178 85.2974 108.322 85.7572C109.383 81.8495 110.364 78.2049 111.361 74.5658C111.662 73.4664 112.036 72.3863 112.338 71.2896C112.493 70.7219 112.809 70.4643 113.391 70.528C113.424 70.5308 113.457 70.5252 113.487 70.528C117.586 70.6498 116.548 69.7055 117.775 73.6547C118.935 77.3824 119.915 81.1682 120.976 84.9291C121.029 85.1119 121.095 85.2891 121.25 85.7405C121.837 83.3921 122.364 81.3039 122.884 79.2157C123.529 76.6235 124.191 74.0369 124.798 71.4364C124.95 70.7828 125.216 70.4892 125.908 70.5169C126.983 70.5612 128.06 70.5612 129.132 70.5224C129.946 70.4864 130.043 70.7911 129.841 71.5139ZM149.288 80.102C148.781 82.8049 147.02 84.3226 144.444 85.0149C142.495 85.5384 140.501 85.447 138.52 85.4027C137.662 85.3833 137.396 85.6215 137.427 86.4938C137.496 88.3466 137.424 90.2049 137.463 92.0604C137.476 92.7528 137.216 92.9826 136.551 92.9605C135.543 92.9273 134.53 92.9134 133.524 92.966C132.768 93.0048 132.597 92.6891 132.602 91.9912C132.633 88.5737 132.616 85.1534 132.616 81.7332C132.616 78.3129 132.616 74.8954 132.616 71.4751C132.616 71.0182 132.536 70.5197 133.25 70.528C136.535 70.5695 139.83 70.3231 143.104 70.7274C149.039 71.4641 150.108 75.7207 149.288 80.102Z" fill="#BC0F06"/>
<path d="M160.715 26.3138C159.183 18.2492 152.686 12.8516 144.372 12.8405C124.496 12.8156 104.617 12.8294 84.7405 12.8322C84.0897 12.8322 83.4333 12.8405 82.7908 12.9208C74.1945 14.0009 68.1931 20.7888 68.182 29.4627C68.1682 39.2388 68.1792 49.015 68.1792 58.7883H68.2014C68.2014 59.9017 68.2014 61.015 68.1986 62.1255H92.7968C92.7968 62.1255 93.3119 55.0496 93.7994 51.934C94.1982 49.3833 95.9401 47.6773 98.1557 46.4726C100.28 45.3205 102.529 44.4565 104.805 43.6533C105.758 43.3182 106.722 43.0025 107.641 42.5899C109.029 41.9695 109.369 40.5848 108.549 39.3192C108.198 38.7763 107.882 38.1948 107.644 37.5966C107.256 36.6106 106.877 35.7272 105.982 34.9767C104.459 33.6944 104.437 31.4124 105.678 29.7618C105.949 29.399 105.769 29.0694 105.711 28.7426C105.556 27.8315 105.846 27.2804 106.774 26.9868C111.864 25.3667 116.96 25.4027 122.075 26.8373C123.072 27.117 123.693 27.6376 123.391 28.7953C123.247 29.3464 123.402 29.7701 123.87 30.1468C124.197 30.4099 124.36 30.8419 124.357 31.285C124.344 32.9744 124.008 34.5391 122.455 35.525C122.1 35.7493 122.028 36.0706 121.92 36.4057C121.571 37.4941 121.142 38.5437 120.475 39.4881C119.788 40.4574 120.073 41.7978 121.109 42.3849C121.53 42.6231 121.998 42.7865 122.46 42.9444C125.202 43.8887 127.93 44.8663 130.497 46.24C131.652 46.8576 132.741 47.5666 133.635 48.5359C134.701 49.6935 135.385 51.0201 135.543 52.6152C135.828 55.4678 136.62 62.0314 136.618 62.1255H137.559C137.551 61.9787 136.729 56.0078 136.598 53.4765C136.416 49.9289 134.629 47.5029 131.691 45.7747C130.907 45.3122 130.087 44.9079 129.259 44.5312C128.661 44.2571 128.584 44.0715 129.157 43.6395C130.899 42.3268 132.624 40.9919 134.319 39.6155C135.914 38.3194 137.393 36.8987 138.723 35.3256C141.406 32.1518 142.436 28.5183 141.786 24.4112C141.755 24.2201 141.725 24.0263 141.708 23.8324C141.702 23.7743 141.741 23.7106 141.794 23.5333C141.794 23.5333 161.98 31.3072 142.14 62.1311H160.989C160.992 51.3275 160.994 40.5239 161 29.7203C160.994 28.5737 160.928 27.4382 160.715 26.3138ZM87.2275 35.6081L82.9515 33.3621L78.6754 35.6081L79.4924 30.8474L76.0334 27.477L80.8134 26.7819L82.9515 22.4505L85.0895 26.7819L89.8695 27.477L86.4105 30.8474L87.2275 35.6081ZM127.094 23.4613C126.687 23.9238 126.252 24.3642 125.809 24.7934C124.895 25.6796 124.119 26.0009 122.627 25.4858C116.946 23.5222 111.197 23.5527 105.567 25.8984C105.27 26.0231 105.046 26.084 104.764 25.879C103.786 25.1728 102.795 24.4805 102.072 23.4973C101.305 22.456 101.368 21.5615 102.473 20.93C104.354 19.8583 105.941 18.4015 107.702 17.1858C111.84 14.3305 117.957 14.5603 121.973 17.7064C123.41 18.8308 124.809 19.9884 126.454 20.8082C127.055 21.1073 127.517 21.567 127.562 22.3037C127.531 22.7413 127.379 23.1401 127.094 23.4613Z" fill="#03304F"/>
<path d="M141.788 23.5305C142.442 23.8407 142.855 24.306 143.289 24.7269C148.64 29.9224 150.709 36.0539 148.626 43.3847C147.017 49.0509 144.056 54.0055 140.614 58.708C139.941 59.6274 138.18 62.1282 138.18 62.1282H142.134C161.975 31.3043 141.788 23.5305 141.788 23.5305Z" fill="#BC0F06"/>
</svg>
