<svg width="31" height="31" viewBox="0 0 31 31" fill="none" xmlns="http://www.w3.org/2000/svg">
<mask id="mask0_105_51" style="mask-type:luminance" maskUnits="userSpaceOnUse" x="0" y="0" width="31" height="31">
<path d="M30.5 0.5H0.5V30.3286H30.5V0.5Z" fill="white"/>
</mask>
<g mask="url(#mask0_105_51)">
<path d="M22.7144 12.3378C23.1957 11.7721 23.5818 11.1464 23.8874 10.4701C23.9089 10.4225 23.9703 10.3404 23.8636 10.322C23.7154 10.2959 23.5588 10.2122 23.449 10.4272C23.294 10.7319 23.0829 11.0052 22.8487 11.2554C22.5686 11.5556 22.2745 11.8419 21.9736 12.1482C22.1678 12.2296 22.3505 12.301 22.5279 12.3846C22.6123 12.4238 22.663 12.3977 22.7144 12.3378Z" fill="#BC0F06"/>
<path d="M24.0548 9.40926C24.1653 9.42999 24.2552 9.43766 24.2774 9.30102C24.3204 9.0454 24.3596 8.78901 24.4002 8.53261C24.4125 8.43205 24.3995 8.35682 24.2782 8.33226C24.1431 8.30462 24.1339 8.39751 24.1147 8.48656C24.0617 8.73143 24.0134 8.97708 23.9527 9.22042C23.9266 9.32482 23.9289 9.38547 24.0548 9.40926Z" fill="#BC0F06"/>
<path d="M9.1401 20.2031C8.77316 20.17 8.40239 20.1892 8.03393 20.177C7.88577 20.1724 7.84739 20.2476 7.84816 20.3735C7.84969 20.5899 7.84816 20.8057 7.84816 21.0221C7.84816 21.2386 7.84816 21.4543 7.84816 21.6708C7.84816 21.7721 7.87349 21.8473 7.99785 21.8458C8.43847 21.8404 8.88217 21.8796 9.31666 21.7806C9.74039 21.6846 9.93691 21.4136 9.91695 20.9784C9.89699 20.5301 9.63216 20.2468 9.1401 20.2031Z" fill="#BC0F06"/>
<path d="M23.4498 20.2023C23.0928 20.167 22.7305 20.1854 22.3712 20.1739C22.2254 20.1693 22.1862 20.2399 22.1901 20.372C22.1962 20.5969 22.1916 20.8218 22.1916 21.0467C22.1908 21.0467 22.1908 21.0467 22.1901 21.0467C22.1901 21.2901 22.1931 21.5326 22.1885 21.776C22.187 21.8842 22.22 21.9495 22.339 21.9464C22.7251 21.9349 23.1135 21.9848 23.4974 21.9096C23.9787 21.8159 24.1806 21.548 24.1698 21.0237C24.1598 20.5462 23.9173 20.2484 23.4498 20.2023Z" fill="#BC0F06"/>
<path d="M12.1308 16.6627C12.0801 16.6627 12.0294 16.6627 11.9788 16.662V16.6658H19.7435V16.6643C19.735 16.6643 19.7258 16.6643 19.7174 16.6643C19.5178 16.6673 19.4418 16.6044 19.4548 16.4002C19.4702 16.1661 19.451 15.9304 19.461 15.6963C19.4756 15.3493 19.4011 15.0323 19.1708 14.7644C19.0879 14.6676 19.0841 14.6131 19.2291 14.5939C19.4425 14.5663 19.5953 14.4619 19.5677 14.2239C19.5393 13.9821 19.3527 13.9123 19.1485 13.9484C18.7532 14.019 18.5743 13.8271 18.4761 13.4778C18.4223 13.2882 18.3272 13.1101 18.2481 12.9282C18.093 12.5704 17.8328 12.3732 17.4298 12.3778C16.9239 12.3831 16.418 12.3793 15.9122 12.3793C15.4063 12.3793 14.9004 12.3831 14.3945 12.3778C13.9501 12.3732 13.6645 12.6019 13.4887 12.9865C13.3766 13.2329 13.2753 13.4847 13.1817 13.7388C13.1272 13.8869 13.0419 13.9583 12.88 13.9438C12.7633 13.9338 12.6451 13.9438 12.5276 13.9445C12.3357 13.9461 12.219 14.0389 12.1998 14.2324C12.1814 14.4243 12.2774 14.5617 12.4631 14.5794C12.6965 14.6016 12.6927 14.6646 12.5622 14.8273C12.3941 15.0384 12.3257 15.2871 12.3342 15.5604C12.3434 15.8583 12.3303 16.1569 12.3372 16.4547C12.3411 16.6075 12.2804 16.6635 12.1308 16.6627ZM18.7202 15.2541C18.9198 15.251 19.028 15.3954 19.0349 15.5911C19.0418 15.7938 18.9428 15.945 18.7386 15.9849C18.5905 16.0141 18.4346 16.0049 18.2819 16.0126C18.2819 16.0079 18.2819 16.0033 18.2819 15.998C18.1468 15.998 18.0109 16.011 17.8773 15.9949C17.6893 15.9726 17.5564 15.8728 17.5495 15.6656C17.5434 15.4721 17.6539 15.3562 17.8351 15.3324C18.1291 15.2933 18.4247 15.2587 18.7202 15.2541ZM13.524 14.1011C13.6545 13.804 13.7559 13.4947 13.8779 13.1938C14.0023 12.8859 14.2272 12.7347 14.5703 12.7386C15.4362 12.747 16.3029 12.7439 17.1688 12.7401C17.5388 12.7386 17.7867 12.9028 17.918 13.2467C18.0309 13.5415 18.1314 13.8417 18.2558 14.1311C18.341 14.3291 18.2634 14.3629 18.0869 14.3621C17.3469 14.3583 16.6069 14.3606 15.8676 14.3606V14.3614C15.1461 14.3614 14.4237 14.356 13.7021 14.3644C13.481 14.3667 13.4327 14.3084 13.524 14.1011ZM12.7502 15.565C12.7817 15.337 12.923 15.2426 13.1486 15.2649C13.4081 15.291 13.6676 15.3117 13.9263 15.3424C14.112 15.3647 14.2226 15.476 14.2256 15.664C14.2287 15.8552 14.1097 15.968 13.9309 15.9911C13.7804 16.011 13.6261 15.9949 13.4734 15.9949C13.3383 15.9941 13.2016 16.0095 13.0696 15.9911C12.8539 15.9611 12.7211 15.7784 12.7502 15.565Z" fill="#BC0F06"/>
<path d="M3.00728 16.6658C3.00344 19.1391 2.98886 21.6132 3.01649 24.0858C3.03645 25.8928 3.95301 27.174 5.5451 27.9747C6.32887 28.3685 7.18402 28.4437 8.05146 28.4429C13.2991 28.4383 18.5467 28.4414 23.7943 28.4406C24.1558 28.4406 24.5158 28.4107 24.8743 28.3616C27.132 28.0476 28.7225 26.2198 28.7225 23.94C28.7225 21.515 28.7241 19.0908 28.7248 16.6658H3.00728ZM13.8948 17.2308C15.2113 17.2369 16.527 17.2384 17.8435 17.23C18.0446 17.2285 18.1114 17.2899 18.1122 17.4895C18.1129 17.6875 18.027 17.7328 17.8504 17.7313C17.1925 17.7251 16.5339 17.729 15.876 17.729C15.876 17.7282 15.876 17.7282 15.876 17.7274C15.2182 17.7274 14.5595 17.722 13.9017 17.7305C13.7044 17.7336 13.6345 17.6752 13.6391 17.4695C13.6445 17.2753 13.7144 17.23 13.8948 17.2308ZM11.0752 25.2096C10.8042 25.2104 10.5309 25.1881 10.263 25.215C9.98284 25.2426 9.84006 25.126 9.72108 24.8849C9.44933 24.3345 9.14151 23.8025 8.87053 23.2521C8.76383 23.0357 8.63717 22.952 8.39229 22.9635C7.7728 22.9919 7.8511 22.8791 7.84726 23.5154C7.84419 23.9945 7.83805 24.4727 7.84957 24.9517C7.85494 25.1559 7.78125 25.225 7.5832 25.215C7.33985 25.2027 7.09421 25.1973 6.8524 25.2165C6.59677 25.2357 6.50619 25.1528 6.5108 24.8849C6.52538 23.9545 6.51617 23.0242 6.51617 22.0938C6.51694 22.0938 6.51694 22.0938 6.51771 22.0938C6.51771 21.1634 6.52462 20.233 6.5131 19.3026C6.51003 19.07 6.57528 18.9802 6.81786 18.9887C7.78201 19.0224 8.75078 18.9196 9.71033 19.0861C10.4503 19.2151 10.9846 19.6051 11.1727 20.3543C11.3646 21.1189 11.3109 21.8458 10.6875 22.4308C10.5402 22.5697 10.3728 22.6795 10.1832 22.7386C10.0013 22.7954 10.0159 22.8699 10.0988 23.008C10.481 23.6413 10.8564 24.28 11.2326 24.9179C11.3938 25.1935 11.3853 25.2089 11.0752 25.2096ZM20.0927 19.2673C19.6782 20.7443 19.2713 22.2227 18.8645 23.702C18.747 24.1288 18.6288 24.5548 18.5252 24.9847C18.4837 25.1574 18.4 25.2227 18.225 25.2165C17.9272 25.2066 17.6286 25.2027 17.3315 25.2173C17.1319 25.2273 17.049 25.1505 16.996 24.9594C16.6728 23.7749 16.3366 22.5943 16.0042 21.4129C15.9804 21.3277 15.952 21.244 15.9167 21.1304C15.8231 21.2225 15.8123 21.32 15.7862 21.4106C15.4485 22.5812 15.1046 23.7503 14.7768 24.9241C14.7146 25.1475 14.6156 25.2365 14.3822 25.2181C14.1312 25.1981 13.8763 25.2012 13.6238 25.2173C13.4096 25.2311 13.3259 25.1405 13.2722 24.9417C12.8661 23.4348 12.4485 21.9303 12.0348 20.4249C11.925 20.0242 11.8198 19.6227 11.7008 19.2243C11.6502 19.0547 11.6962 18.9902 11.8705 18.9925C12.1775 18.9963 12.4854 19.0048 12.7916 18.9887C13.0004 18.9779 13.0718 19.0723 13.1179 19.2589C13.4257 20.5032 13.7428 21.7445 14.0575 22.9873C14.0705 23.038 14.0882 23.0879 14.1281 23.2153C14.4221 22.1322 14.6939 21.1219 14.9702 20.1133C15.0539 19.8085 15.1575 19.5091 15.2412 19.2051C15.2842 19.0478 15.3717 18.9764 15.5329 18.994C15.5421 18.9948 15.5513 18.9933 15.5598 18.994C16.6959 19.0278 16.408 18.766 16.7481 19.8607C17.0697 20.8939 17.3415 21.9433 17.6355 22.9858C17.6501 23.0364 17.6685 23.0856 17.7115 23.2107C17.8742 22.5597 18.0201 21.9809 18.1644 21.4021C18.3432 20.6836 18.5267 19.9666 18.6948 19.2458C18.737 19.0647 18.8107 18.9833 19.0026 18.991C19.3005 19.0032 19.5991 19.0032 19.8962 18.9925C20.1219 18.9825 20.1487 19.067 20.0927 19.2673ZM25.4831 21.6478C25.3426 22.397 24.8544 22.8177 24.1405 23.0096C23.6001 23.1547 23.0473 23.1293 22.4985 23.117C22.2605 23.1117 22.1868 23.1777 22.1953 23.4195C22.2145 23.933 22.1945 24.4481 22.2052 24.9625C22.2091 25.1544 22.1369 25.2181 21.9527 25.2119C21.6733 25.2027 21.3923 25.1989 21.1137 25.2135C20.9041 25.2242 20.8565 25.1367 20.858 24.9433C20.8665 23.996 20.8619 23.0479 20.8619 22.0999C20.8619 21.1519 20.8619 20.2046 20.8619 19.2566C20.8619 19.1299 20.8396 18.9917 21.0377 18.994C21.9481 19.0055 22.8616 18.9372 23.7689 19.0493C25.414 19.2535 25.7103 20.4334 25.4831 21.6478Z" fill="#BC0F06"/>
<path d="M28.6504 6.73864C28.2259 4.50326 26.425 3.00713 24.1205 3.00406C18.6112 2.99715 13.101 3.00099 7.59166 3.00175C7.41127 3.00175 7.22934 3.00406 7.05124 3.02632C4.66848 3.3257 3.005 5.20719 3.00193 7.61145C2.99809 10.3212 3.00116 13.031 3.00116 15.74H3.0073C3.0073 16.0486 3.0073 16.3572 3.00654 16.665H9.82474C9.82474 16.665 9.96752 14.7037 10.1026 13.8401C10.2132 13.1331 10.696 12.6602 11.3101 12.3263C11.8989 12.007 12.5222 11.7675 13.1532 11.5448C13.4173 11.452 13.6844 11.3644 13.9393 11.2501C14.3239 11.0781 14.4183 10.6943 14.1911 10.3435C14.0936 10.193 14.0061 10.0318 13.9401 9.86601C13.8326 9.59273 13.7274 9.34785 13.4795 9.13982C13.0573 8.7844 13.0511 8.15187 13.395 7.69435C13.4703 7.59379 13.4204 7.50244 13.4043 7.41186C13.3613 7.1593 13.4419 7.00654 13.699 6.92517C15.11 6.4761 16.5224 6.48608 17.9402 6.88372C18.2166 6.96125 18.3886 7.10557 18.3049 7.42644C18.265 7.57921 18.3079 7.69666 18.4377 7.80105C18.5283 7.87398 18.5736 7.99373 18.5728 8.11655C18.5689 8.58482 18.4761 9.01853 18.0454 9.29182C17.9472 9.35399 17.9272 9.44304 17.8973 9.53593C17.8005 9.83761 17.6816 10.1285 17.4966 10.3903C17.3062 10.659 17.3852 11.0305 17.6723 11.1933C17.789 11.2593 17.9188 11.3046 18.047 11.3483C18.8069 11.6101 19.563 11.8811 20.2746 12.2618C20.5948 12.433 20.8964 12.6295 21.1444 12.8982C21.4399 13.2191 21.6295 13.5868 21.6733 14.0289C21.7524 14.8196 21.9719 16.6389 21.9711 16.665H22.2321C22.2298 16.6243 22.0018 14.9693 21.9658 14.2677C21.9151 13.2843 21.42 12.6119 20.6055 12.1329C20.3883 12.0047 20.161 11.8926 19.9315 11.7882C19.7657 11.7122 19.7442 11.6608 19.9031 11.541C20.386 11.1771 20.8642 10.8071 21.334 10.4256C21.7762 10.0664 22.1861 9.67257 22.5545 9.23655C23.2984 8.35683 23.584 7.34968 23.4036 6.21127C23.3951 6.1583 23.3867 6.10456 23.3821 6.05083C23.3805 6.03471 23.3913 6.01705 23.4059 5.96792C23.4059 5.96792 29.0012 8.1227 23.5018 16.6666H28.7264C28.7272 13.672 28.7279 10.6774 28.7295 7.68284C28.7279 7.36503 28.7095 7.0503 28.6504 6.73864ZM8.28101 9.31484L7.09577 8.69229L5.91053 9.31484L6.13698 7.99527L5.1782 7.06105L6.50315 6.86837L7.09577 5.66778L7.68839 6.86837L9.01334 7.06105L8.05455 7.99527L8.28101 9.31484ZM19.3312 5.94796C19.2184 6.07616 19.0979 6.19822 18.975 6.3172C18.7217 6.56285 18.5068 6.65189 18.093 6.50911C16.5186 5.96485 14.925 5.9733 13.3643 6.62349C13.2822 6.65803 13.22 6.67492 13.1417 6.61812C12.8707 6.42237 12.5959 6.23046 12.3956 5.95794C12.1829 5.66931 12.2006 5.42136 12.5069 5.24634C13.0281 4.94926 13.468 4.54548 13.9562 4.20849C15.103 3.41705 16.7988 3.48076 17.9118 4.3528C18.3103 4.66447 18.6979 4.98534 19.1539 5.21256C19.3205 5.29547 19.4487 5.4229 19.4609 5.62709C19.4525 5.74838 19.4103 5.85892 19.3312 5.94796Z" fill="#03304F"/>
<path d="M23.4045 5.96713C23.5857 6.05311 23.7001 6.18207 23.8206 6.29875C25.3037 7.73885 25.8771 9.43841 25.2998 11.4704C24.8538 13.041 24.0332 14.4143 23.0791 15.7177C22.8925 15.9726 22.4043 16.6658 22.4043 16.6658H23.5005C28.9999 8.1219 23.4045 5.96713 23.4045 5.96713Z" fill="#BC0F06"/>
</g>
</svg>
