<svg width="230" height="132" viewBox="0 0 230 132" fill="none" xmlns="http://www.w3.org/2000/svg">
<path d="M147.378 49.7031C149.683 46.9947 151.531 43.9996 152.994 40.762C153.097 40.5341 153.391 40.1409 152.88 40.0527C152.17 39.9278 151.421 39.5272 150.895 40.5562C150.153 42.0151 149.142 43.3234 148.021 44.5215C146.68 45.9584 145.273 47.3291 143.832 48.7954C144.762 49.185 145.636 49.5267 146.485 49.9273C146.89 50.1147 147.132 49.9898 147.378 49.7031Z" fill="#BC0F06"/>
<path d="M153.795 35.6832C154.324 35.7824 154.754 35.8191 154.861 35.165C155.066 33.9412 155.254 32.7138 155.449 31.4864C155.507 31.005 155.445 30.6448 154.864 30.5272C154.218 30.3949 154.173 30.8396 154.082 31.2659C153.828 32.4382 153.596 33.6142 153.306 34.7791C153.181 35.2789 153.192 35.5692 153.795 35.6832Z" fill="#BC0F06"/>
<path d="M82.3942 87.3566C80.6376 87.1986 78.8626 87.2905 77.0986 87.2317C76.3894 87.2097 76.2056 87.5698 76.2093 88.1725C76.2166 89.2088 76.2093 90.2415 76.2093 91.2778C76.2093 92.3141 76.2093 93.3468 76.2093 94.3831C76.2093 94.8682 76.3306 95.2284 76.9259 95.221C79.0353 95.1953 81.1594 95.3827 83.2395 94.9087C85.268 94.4493 86.2088 93.152 86.1133 91.0683C86.0177 88.9222 84.7499 87.5661 82.3942 87.3566Z" fill="#BC0F06"/>
<path d="M150.899 87.353C149.19 87.1839 147.455 87.2721 145.735 87.217C145.037 87.195 144.85 87.5331 144.868 88.1651C144.898 89.2419 144.876 90.3187 144.876 91.3954C144.872 91.3954 144.872 91.3954 144.868 91.3954C144.868 92.5604 144.883 93.7217 144.861 94.8866C144.853 95.4048 145.012 95.7172 145.581 95.7025C147.43 95.6473 149.289 95.8862 151.127 95.5261C153.431 95.0777 154.397 93.7952 154.346 91.2852C154.298 88.9994 153.137 87.5735 150.899 87.353Z" fill="#BC0F06"/>
<path d="M96.7115 70.4078C96.469 70.4078 96.2264 70.4078 95.9839 70.4041V70.4225H133.156V70.4151C133.116 70.4151 133.071 70.4151 133.031 70.4151C132.076 70.4298 131.712 70.1285 131.774 69.151C131.848 68.0301 131.756 66.9019 131.804 65.781C131.873 64.12 131.517 62.6022 130.414 61.3197C130.018 60.8566 129.999 60.5957 130.694 60.5038C131.715 60.3715 132.447 59.8717 132.314 58.7325C132.178 57.5749 131.285 57.2405 130.308 57.4132C128.415 57.7513 127.559 56.8325 127.089 55.1604C126.831 54.2527 126.376 53.4001 125.997 52.5292C125.255 50.8166 124.009 49.8722 122.08 49.8942C119.658 49.92 117.236 49.9016 114.814 49.9016C112.393 49.9016 109.971 49.92 107.549 49.8942C105.421 49.8722 104.054 50.9673 103.213 52.8085C102.676 53.9881 102.191 55.1935 101.743 56.4099C101.482 57.1192 101.074 57.461 100.298 57.3911C99.7397 57.3434 99.1737 57.3911 98.6115 57.3948C97.6927 57.4022 97.1341 57.8468 97.0423 58.7729C96.9541 59.6917 97.4134 60.3495 98.3028 60.434C99.42 60.5406 99.4016 60.8419 98.7768 61.621C97.972 62.6316 97.645 63.8223 97.6854 65.1306C97.7295 66.5565 97.667 67.986 97.7001 69.4119C97.7185 70.1432 97.4281 70.4115 96.7115 70.4078ZM128.257 63.6643C129.213 63.6496 129.731 64.3405 129.764 65.2776C129.797 66.2478 129.323 66.9717 128.345 67.1628C127.636 67.3025 126.89 67.2584 126.159 67.2951C126.159 67.2731 126.159 67.251 126.159 67.2253C125.512 67.2253 124.862 67.2878 124.222 67.2106C123.322 67.104 122.686 66.6263 122.653 65.634C122.624 64.708 123.153 64.153 124.02 64.0391C125.428 63.8517 126.842 63.6863 128.257 63.6643ZM103.382 58.1445C104.006 56.7223 104.491 55.2413 105.076 53.8007C105.671 52.3271 106.748 51.6031 108.391 51.6215C112.536 51.6619 116.685 51.6472 120.83 51.6288C122.602 51.6215 123.789 52.4079 124.417 54.0543C124.957 55.4655 125.439 56.9024 126.034 58.2878C126.442 59.236 126.071 59.3977 125.225 59.394C121.683 59.3756 118.14 59.3866 114.601 59.3866V59.3903C111.147 59.3903 107.689 59.3646 104.234 59.405C103.176 59.416 102.944 59.1367 103.382 58.1445ZM99.6772 65.1526C99.8279 64.0612 100.504 63.6091 101.585 63.7157C102.827 63.8407 104.069 63.9399 105.307 64.0869C106.197 64.1935 106.726 64.7263 106.74 65.6267C106.755 66.5418 106.186 67.082 105.329 67.1922C104.609 67.2878 103.87 67.2106 103.139 67.2106C102.492 67.2069 101.838 67.2804 101.206 67.1922C100.173 67.0489 99.5376 66.1743 99.6772 65.1526Z" fill="#BC0F06"/>
<path d="M53.0351 70.4225C53.0167 82.2632 52.9469 94.1075 53.0792 105.945C53.1747 114.595 57.5626 120.729 65.1845 124.562C68.9366 126.447 73.0305 126.807 77.1832 126.804C102.305 126.782 127.427 126.796 152.549 126.793C154.28 126.793 156.003 126.649 157.72 126.414C168.528 124.911 176.142 116.161 176.142 105.246C176.142 93.6371 176.15 82.0316 176.153 70.4225H53.0351ZM105.157 73.1273C111.459 73.1567 117.758 73.164 124.061 73.1236C125.024 73.1162 125.343 73.4102 125.347 74.3657C125.351 75.3138 124.939 75.5307 124.094 75.5233C120.944 75.4939 117.791 75.5123 114.642 75.5123C114.642 75.5086 114.642 75.5086 114.642 75.5049C111.493 75.5049 108.339 75.4792 105.19 75.5196C104.246 75.5343 103.911 75.255 103.933 74.2702C103.959 73.3404 104.293 73.1236 105.157 73.1273ZM91.6588 111.325C90.3615 111.328 89.0533 111.222 87.7707 111.35C86.4293 111.483 85.7458 110.924 85.1762 109.77C83.8753 107.135 82.4016 104.588 81.1043 101.954C80.5935 100.917 79.9872 100.517 78.8149 100.572C75.8492 100.708 76.224 100.168 76.2056 103.214C76.1909 105.507 76.1615 107.797 76.2167 110.09C76.2424 111.067 75.8896 111.398 74.9415 111.35C73.7765 111.292 72.6005 111.266 71.4429 111.358C70.2192 111.45 69.7855 111.053 69.8076 109.77C69.8774 105.316 69.8333 100.862 69.8333 96.4081C69.837 96.4081 69.837 96.4081 69.8406 96.4081C69.8406 91.954 69.8737 87.5 69.8186 83.0459C69.8039 81.9324 70.1163 81.5025 71.2775 81.5429C75.8933 81.7046 80.5311 81.2121 85.1247 82.0096C88.6674 82.627 91.2252 84.4939 92.1255 88.0806C93.0443 91.7409 92.787 95.221 89.803 98.0214C89.0974 98.6865 88.2962 99.212 87.3885 99.495C86.5175 99.767 86.5874 100.123 86.9843 100.785C88.8144 103.817 90.6114 106.874 92.4122 109.928C93.1839 111.247 93.1435 111.321 91.6588 111.325ZM134.828 82.8769C132.844 89.9475 130.896 97.0254 128.949 104.107C128.386 106.15 127.82 108.19 127.324 110.248C127.126 111.075 126.725 111.387 125.887 111.358C124.461 111.31 123.032 111.292 121.61 111.361C120.654 111.409 120.257 111.042 120.004 110.127C118.457 104.456 116.847 98.8041 115.256 93.1484C115.142 92.7405 115.006 92.3399 114.837 91.796C114.388 92.237 114.337 92.7037 114.212 93.1373C112.595 98.7416 110.949 104.339 109.379 109.958C109.082 111.027 108.608 111.453 107.49 111.365C106.289 111.27 105.069 111.284 103.86 111.361C102.834 111.428 102.434 110.994 102.177 110.042C100.232 102.828 98.2333 95.6253 96.2525 88.4187C95.727 86.5004 95.2235 84.5784 94.6539 82.6711C94.4113 81.8589 94.6318 81.5502 95.466 81.5613C96.936 81.5796 98.4097 81.6201 99.876 81.5429C100.876 81.4914 101.217 81.9434 101.438 82.8365C102.911 88.7936 104.429 94.7359 105.936 100.686C105.998 100.928 106.083 101.167 106.274 101.777C107.682 96.5918 108.983 91.7556 110.305 86.9267C110.706 85.4677 111.202 84.0345 111.603 82.5792C111.809 81.8259 112.227 81.4841 112.999 81.5686C113.043 81.5723 113.087 81.5649 113.128 81.5686C118.567 81.7303 117.189 80.4772 118.817 85.7176C120.356 90.6641 121.657 95.6878 123.065 100.678C123.135 100.921 123.223 101.156 123.429 101.755C124.208 98.6387 124.906 95.8678 125.597 93.0969C126.453 89.6572 127.332 86.2248 128.136 82.774C128.338 81.9067 128.691 81.5172 129.61 81.5539C131.036 81.6127 132.465 81.6127 133.888 81.5613C134.968 81.5135 135.097 81.9177 134.828 82.8769ZM160.634 94.2729C159.961 97.8597 157.624 99.8735 154.206 100.792C151.619 101.487 148.973 101.366 146.346 101.307C145.206 101.281 144.854 101.597 144.894 102.755C144.986 105.213 144.89 107.679 144.942 110.141C144.96 111.06 144.615 111.365 143.733 111.336C142.395 111.292 141.05 111.273 139.716 111.343C138.713 111.394 138.485 110.976 138.492 110.049C138.533 105.515 138.511 100.976 138.511 96.4375C138.511 91.8989 138.511 87.364 138.511 82.8254C138.511 82.2191 138.404 81.5576 139.352 81.5686C143.711 81.6237 148.084 81.2967 152.428 81.8332C160.303 82.8107 161.722 88.4591 160.634 94.2729Z" fill="#BC0F06"/>
<path d="M175.797 22.898C173.764 12.1966 165.143 5.03412 154.111 5.01942C127.736 4.98635 101.357 5.00472 74.9818 5.0084C74.1181 5.0084 73.2472 5.01942 72.3946 5.126C60.9876 6.55923 53.0239 15.5665 53.0092 27.0765C52.9909 40.049 53.0056 53.0216 53.0056 65.9905H53.035C53.035 67.4678 53.035 68.9452 53.0313 70.4188H85.6722C85.6722 70.4188 86.3557 61.0293 87.0025 56.895C87.5317 53.5104 89.8432 51.2466 92.7832 49.648C95.6019 48.1192 98.586 46.9726 101.607 45.9069C102.871 45.4622 104.15 45.0433 105.37 44.4957C107.211 43.6725 107.663 41.8351 106.575 40.1556C106.109 39.4353 105.69 38.6636 105.374 37.8698C104.859 36.5615 104.356 35.3892 103.169 34.3933C101.147 32.6918 101.118 29.6636 102.764 27.4734C103.125 26.9919 102.886 26.5546 102.808 26.121C102.603 24.9119 102.989 24.1806 104.22 23.7911C110.974 21.6412 117.736 21.689 124.524 23.5926C125.847 23.9638 126.67 24.6547 126.269 26.1908C126.078 26.9221 126.284 27.4844 126.905 27.9842C127.339 28.3333 127.556 28.9066 127.552 29.4946C127.534 31.7363 127.089 33.8126 125.027 35.1209C124.557 35.4186 124.461 35.8449 124.318 36.2896C123.855 37.7338 123.285 39.1266 122.4 40.3798C121.488 41.666 121.867 43.4447 123.241 44.2238C123.8 44.5398 124.421 44.7566 125.035 44.9661C128.673 46.2193 132.293 47.5165 135.699 49.3393C137.232 50.1588 138.676 51.0996 139.863 52.3858C141.278 53.922 142.186 55.6823 142.395 57.799C142.774 61.5842 143.825 70.2939 143.821 70.4188H145.07C145.059 70.224 143.968 62.3008 143.795 58.9419C143.553 54.2343 141.182 51.0151 137.283 48.7219C136.243 48.1082 135.155 47.5717 134.057 47.0719C133.263 46.708 133.16 46.4618 133.921 45.8885C136.232 44.1466 138.522 42.3753 140.771 40.5488C142.887 38.8289 144.85 36.9437 146.614 34.8563C150.175 30.6448 151.542 25.8233 150.678 20.3734C150.638 20.1198 150.597 19.8625 150.575 19.6053C150.568 19.5281 150.62 19.4436 150.689 19.2084C150.689 19.2084 177.476 29.524 151.149 70.4262H176.16C176.164 56.0902 176.168 41.7542 176.175 27.4182C176.168 25.8968 176.08 24.3901 175.797 22.898ZM78.2819 35.2312L72.6077 32.2508L66.9336 35.2312L68.0177 28.9139L63.4277 24.4415L69.7707 23.5191L72.6077 17.7715L75.4448 23.5191L81.7878 24.4415L77.1978 28.9139L78.2819 35.2312ZM131.183 19.1128C130.643 19.7266 130.066 20.3109 129.478 20.8805C128.265 22.0565 127.236 22.4828 125.255 21.7992C117.718 19.1937 110.089 19.2341 102.617 22.3468C102.224 22.5122 101.926 22.593 101.552 22.3211C100.254 21.384 98.9388 20.4652 97.9796 19.1606C96.9616 17.7788 97.0462 16.5918 98.5125 15.7539C101.008 14.3317 103.113 12.3987 105.451 10.7854C110.941 6.99654 119.059 7.30157 124.388 11.4763C126.295 12.9683 128.151 14.5045 130.334 15.5922C131.131 15.9891 131.745 16.5992 131.804 17.5767C131.763 18.1574 131.561 18.6866 131.183 19.1128Z" fill="#03304F"/>
<path d="M150.682 19.2047C151.549 19.6163 152.097 20.2337 152.674 20.7923C159.774 27.6865 162.519 35.8228 159.755 45.5504C157.62 53.0693 153.692 59.6438 149.124 65.8839C148.231 67.104 145.894 70.4224 145.894 70.4224H151.141C177.469 29.5203 150.682 19.2047 150.682 19.2047Z" fill="#BC0F06"/>
</svg>
